<svg xmlns="http://www.w3.org/2000/svg" xmlns:xlink="http://www.w3.org/1999/xlink" version="1.1" style="enable-background:new 0 0 2071.99 1149.26;" xml:space="preserve" width="2071.989990234375" height="1149.260009765625"><rect id="backgroundrect" width="100%" height="100%" x="0" y="0" fill="none" stroke="none"/>
<style type="text/css">
	.st0{fill:#19202B;}
	.st1{fill:#3688DB;}
</style>


<g class="currentLayer" style=""><title>Layer 1</title><g id="svg_5" class="">
	<polygon class="st1" points="53.75207996368408,219.60015678405762 16.3156099319458,911.1560821533203 174.79028034210205,911.1560821533203 194.97018146514893,622.9944305419922 295.7886629104614,911.1560821533203 457.1863374710083,911.1560821533203 549.3564729690552,631.6428070068359 566.6531648635864,911.1560821533203 730.8937044143677,911.1560821533203 684.8086824417114,219.60015678405762 520.5683259963989,219.60015678405762 373.62475299835205,643.1741180419922 220.8756227493286,219.60015678405762 " id="svg_6"/>
	<path class="st1" d="M1068.0633109565672,219.68032801139324 h-172.8889425103233 v691.5557700412932 h172.8889425103233 c0,0 342.9751462583208,2.8828170126779256 340.01225099529074,-345.7778850206466 C1405.1927449391792,225.44596203674902 1068.0633109565672,219.68032801139324 1068.0633109565672,219.68032801139324 zM1063.7390854375506,748.3969759615595 l0,-368.6001863710135 c0,0 166.0422521052132,15.415063192791678 168.92506911789113,182.53837167775913 S1063.7390854375506,748.3969759615595 1063.7390854375506,748.3969759615595 z" id="svg_7"/>
	<path class="st1" d="M1923.819533344974,480.37507203286475 c0,0 40.91998592995609,-57.21590987662157 28.82817012677924,-138.2951383581882 c-19.29885833487166,-129.16621781804142 -198.83429562442458,-123.92109241997466 -198.83429562442458,-123.92109241997466 h-187.3030275737129 v691.5557700412932 h164.24049147228953 c0,0 314.0668978811894,17.296902076067546 314.0668978811894,-230.50524363870568 C2044.857808752271,523.4972098475056 1923.819533344974,480.37507203286475 1923.819533344974,480.37507203286475 zM1736.5165057712604,365.102430650924 c0,0 48.96785009034863,-5.765634025355849 57.6163011283824,34.59380415213509 c5.165047147714615,24.06351423082545 -14.41408506338962,43.202216064992776 -14.41408506338962,43.202216064992776 h-43.202216064992776 V365.102430650924 zM1736.156153644676,760.24855701368 l0.3603521265847412,-89.96791427065688 V604.2561253276633 c0.08007825035216463,0 0.2001956258804117,0 0.28027387623257627,0 v0 c0,0 150.06664115995636,-17.09670645018713 148.6652717787935,80.95911110603836 C1884.180799420652,777.9458503415082 1736.156153644676,760.24855701368 1736.156153644676,760.24855701368 z" id="svg_8"/>
</g></g></svg>