<svg xmlns="http://www.w3.org/2000/svg" xmlns:xlink="http://www.w3.org/1999/xlink" version="1.1" style="" xml:space="preserve" width="2071.99" height="1149.26"><rect id="backgroundrect" width="100%" height="100%" x="0" y="0" fill="none" stroke="none"/>
<style type="text/css">
	.st0{fill:#19202B;}
	.st1{fill:#3688DB;}
</style>


<g class="currentLayer" style=""><title>Layer 1</title><g id="svg_1" class="">
	<polygon class="st0" points="55.51989984512329,233.38271713256836 17.963392734527588,927.1556549072266 176.94615030288696,927.1556549072266 197.19073343276978,638.0703277587891 298.37241983413696,927.1556549072266 460.2476029396057,927.1556549072266 552.7534928321838,646.7464141845703 570.0653824806213,927.1556549072266 734.8325333595276,927.1556549072266 688.5996842384338,233.38271713256836 523.8325943946838,233.38271713256836 376.41807413101196,658.3146820068359 223.17898416519165,233.38271713256836 " id="svg_2"/>
	<path class="st0" d="M1073.0831007902555,233.46310630776435 h-173.44323831558228 v693.7729532623291 h173.44323831558228 c0,0 344.0747520637512,2.8920595550537116 341.1023575210571,-346.88647663116456 C1411.2933987562592,239.24722541787176 1073.0831007902555,233.46310630776435 1073.0831007902555,233.46310630776435 zM1068.7450114576752,763.8748622033788 l0,-369.7819481086731 c0,0 166.57459687232972,15.464485120773316 169.4666564273834,183.12360432624817 C1241.1037274401126,744.9158051202488 1068.7450114576752,763.8748622033788 1068.7450114576752,763.8748622033788 z" id="svg_3"/>
	<path class="st0" d="M1931.5829462091856,494.99365857102407 c0,0 41.05117868423462,-57.399348669052124 28.92059555053711,-138.73852365493775 c-19.36073202133179,-129.5803350639343 -199.47177431106567,-124.31839337348937 -199.47177431106567,-124.31839337348937 h-187.90353609085082 v693.7729532623291 h164.76705965042115 c0,0 315.07382152557375,17.352357330322267 315.07382152557375,-231.2442619228363 C2053.0092800276216,538.2540494153693 1931.5829462091856,494.99365857102407 1931.5829462091856,494.99365857102407 zM1743.679410118335,379.35144386269593 c0,0 49.1248449420929,-5.7841191101074205 57.80102360725403,34.704714660644534 c5.181606702804565,24.140663785934446 -14.460297775268556,43.34072583198547 -14.460297775268556,43.34072583198547 h-43.34072583198547 V379.35144386269593 zM1743.3179026739535,775.7644403741552 l0.361507444381714,-90.25635861396789 V619.2718844506933 c0.0803349876403809,0 0.2008374691009522,0 0.28117245674133295,0 v0 c0,0 150.54776683807373,-17.151519861221313 149.14190455436707,81.21867250442504 C1891.8171273271976,793.5184726426793 1743.3179026739535,775.7644403741552 1743.3179026739535,775.7644403741552 z" id="svg_4"/>
</g></g></svg>